<?xml version="1.0" encoding="UTF-8"?>
<svg version="1.1" xmlns="http://www.w3.org/2000/svg" width="240" height="240">
<path d="M0 0 C2.12367851 1.5511661 2.88852905 2.47076407 3.43359375 5.05859375 C3.45564842 18.48988488 -3.38203761 30.59904149 -9.08740234 42.43383789 C-13.32011926 51.2485736 -16.1571249 59.1135585 -17 69 C-11.39993001 67.76104646 -6.59207385 66.1181892 -1.5 63.5 C-0.81639404 63.15469238 -0.13278809 62.80938477 0.5715332 62.45361328 C5.61642633 59.85013236 10.41115625 56.9383164 15.1875 53.875 C33.73554948 42 33.73554948 42 44 42 C46 44 46 44 46.1875 45.8203125 C44.82708598 62.54206821 35.15719266 78.63850189 28.11987305 93.52661133 C26.14251049 97.8938797 25.90997465 101.22865653 26 106 C30.74238699 105.39341562 34.59787799 103.36064824 38.75 101.125 C39.49515869 100.72571289 40.24031738 100.32642578 41.00805664 99.91503906 C56.78093894 91.31857795 72.83811624 81.08144638 86.26953125 69.1171875 C89 67 89 67 93 67 C92.54109383 71.31371798 89.77076962 73.68502935 86.8125 76.5625 C86.27641113 77.0891626 85.74032227 77.6158252 85.18798828 78.15844727 C79.17623869 83.95245527 72.68198676 89.01078322 66 94 C65.32727051 94.51175781 64.65454102 95.02351563 63.96142578 95.55078125 C26.18260682 124.24488076 26.18260682 124.24488076 11 124 C7.42477278 122.09993347 5.29862157 119.89586472 4 116 C2.73154477 105.07316427 5.74462136 93.6266749 11 84 C5.29131425 85.90911386 1.0848537 88.12039181 -3.625 91.8125 C-13.31787599 99.07652237 -24.56986835 104.88786655 -37 104 C-39.87305972 102.59539303 -41.74510999 101.25489001 -44 99 C-45.52206717 90.20405391 -42.45322579 82.92672283 -39 75 C-38.2434685 73.14848869 -37.49282165 71.29455413 -36.75 69.4375 C-36.43546875 68.67308594 -36.1209375 67.90867187 -35.796875 67.12109375 C-35.03624649 65.09647963 -34.47786428 63.10738147 -34 61 C-44.07961312 63.84858632 -50.15896489 73.71073706 -56.23828125 81.703125 C-61.87859649 89.05679543 -67.91356961 96.10214861 -73.91308594 103.16308594 C-76.8119485 106.57981927 -79.67126058 110.02469157 -82.5 113.5 C-87.16211097 119.22130254 -91.90838615 124.86508935 -96.70849609 130.47070312 C-97.92824609 131.91503469 -99.11564612 133.38650758 -100.30078125 134.859375 C-100.98527344 135.68953125 -101.66976562 136.5196875 -102.375 137.375 C-102.96023437 138.10460937 -103.54546875 138.83421875 -104.1484375 139.5859375 C-106 141 -106 141 -108.7265625 140.7265625 C-109.47679688 140.48679688 -110.22703125 140.24703125 -111 140 C-110.50851639 134.20420268 -108.1256381 130.01968167 -105.3125 125.0625 C-104.82628174 124.19423584 -104.34006348 123.32597168 -103.83911133 122.43139648 C-83.02729843 85.59032463 -59.24369073 49.72507844 -30 19 C-29.48469727 18.45601562 -28.96939453 17.91203125 -28.43847656 17.3515625 C-11.16056241 -0.78319736 -11.16056241 -0.78319736 0 0 Z " fill="#F95900" transform="translate(128,58)"/>
<path d="M0 0 C0.92554688 0.28875 1.85109375 0.5775 2.8046875 0.875 C26.31026801 9.28594255 43.01382838 28.21284846 53.5078125 50.15234375 C56.17383851 56.48216001 57.74071019 62.82591664 58.9375 69.5625 C59.07841064 70.3369043 59.21932129 71.11130859 59.36450195 71.90917969 C59.84271764 74.93910093 60.19037504 77.39897304 59.25390625 80.35546875 C57.14566073 83.12048857 54.78701894 84.9097358 52 87 C51.34 87 50.68 87 50 87 C49.88785156 85.36417969 49.88785156 85.36417969 49.7734375 83.6953125 C47.91032422 60.898973 39.97657044 39.77474455 22.18359375 24.59765625 C4.54934048 10.7799428 -16.05174683 4.46143149 -38.33203125 6.45703125 C-44.43066314 7.35981062 -50.17201015 9.01947726 -56 11 C-56.88300781 11.28746094 -57.76601562 11.57492188 -58.67578125 11.87109375 C-76.67945242 18.3317413 -90.12833847 32.27430117 -98.8125 48.9375 C-104.57253525 61.23090856 -106.60510801 71.53310421 -106.87817383 85.06762695 C-107.19293223 92.05809035 -108.49604605 95.71459558 -113.51049805 100.6784668 C-114.00203369 101.11457275 -114.49356934 101.55067871 -115 102 C-121.37294891 92.44057664 -118.0947872 75.529062 -116 65 C-111.80650137 47.46835657 -103.71336037 33.6744816 -91 21 C-90.38382813 20.32453125 -89.76765625 19.6490625 -89.1328125 18.953125 C-67.19763099 -4.76625788 -29.40584993 -9.30646679 0 0 Z " fill="#F35600" transform="translate(152,39)"/>
<path d="M0 0 C0.33 0.66 0.66 1.32 1 2 C-0.08838219 4.27653276 -1.2221623 6.39496744 -2.5 8.5625 C-3.05530396 9.51249878 -3.05530396 9.51249878 -3.62182617 10.48168945 C-16.94859951 32.89087718 -36.44742142 46.75676589 -61.51953125 53.203125 C-84.58208596 58.48344056 -108.62171592 54.13176534 -128.625 41.59765625 C-145.6845506 30.12174146 -145.6845506 30.12174146 -147.9375 23.0625 C-147.958125 22.381875 -147.97875 21.70125 -148 21 C-145.03 18.525 -145.03 18.525 -142 16 C-141.28457031 16.7734375 -140.56914062 17.546875 -139.83203125 18.34375 C-124.86767842 34.13917337 -105.9994051 43.74853939 -84.00244141 44.40405273 C-73.67546183 44.52409314 -64.79449416 43.46112186 -55 40 C-54.10410156 39.71125 -53.20820313 39.4225 -52.28515625 39.125 C-39.32822183 34.53992368 -27.9351694 25.09513703 -19.3125 14.5625 C-13.99269136 8.32852134 -6.88857364 4.29638903 0 0 Z " fill="#F25600" transform="translate(204,157)"/>
</svg>
